<svg version="1.1" id="Icon_Set" xmlns="http://www.w3.org/2000/svg" x="0" y="0" viewBox="0 0 512 512" style="enable-background:new 0 0 512 512" xml:space="preserve"><style>.st0{fill:#4c4372}.st2{fill:#fd919e}.st3{fill:#e8677d}.st4{fill:#d3e6f8}.st5{fill:#a4cff2}</style><circle cx="256" cy="256" r="207" style="fill:#f0c48a"/><path class="st4" d="M304.851 17.666h100.644v252.342H304.851z"/><path class="st4" d="M405.49 118.603h100.646v151.406H405.49z"/><path class="st5" d="M377.85 17.666h27.645v252.342H377.85zM478.637 118.603h27.5v151.406h-27.5z"/><path class="st4" d="M5.862 112.991h100.646v100.937H5.862z"/><path class="st5" d="M78.863 112.991h27.646v100.937H78.863z"/><path class="st0" d="M106.508 219.79H5.862A5.863 5.863 0 0 1 0 213.927V112.99a5.862 5.862 0 0 1 5.862-5.862h100.646a5.862 5.862 0 0 1 5.863 5.862v100.937a5.863 5.863 0 0 1-5.863 5.863zm-94.783-11.725h88.921v-89.212H11.725v89.212zM405.494 275.872H304.85a5.863 5.863 0 0 1-5.862-5.863V17.666a5.863 5.863 0 0 1 5.862-5.863h100.645a5.863 5.863 0 0 1 5.863 5.863v252.342a5.865 5.865 0 0 1-5.864 5.864zm-94.781-11.726h88.92V23.529h-88.92v240.617z"/><path class="st0" d="M405.787 124.466c-1.5 0-3.001-.572-4.146-1.717L300.705 21.812a5.862 5.862 0 0 1 0-8.291 5.86 5.86 0 0 1 8.29 0l100.937 100.937a5.86 5.86 0 0 1 0 8.291 5.841 5.841 0 0 1-4.145 1.717z"/><path class="st0" d="M304.85 124.466a5.862 5.862 0 0 1-4.145-10.008l98.596-98.595a5.86 5.86 0 0 1 8.289 0 5.86 5.86 0 0 1 0 8.291l-98.595 98.595a5.846 5.846 0 0 1-4.145 1.717zM106.655 219.79a5.844 5.844 0 0 1-4.149-1.72L1.714 117.133a5.863 5.863 0 0 1 8.298-8.285l100.793 100.937a5.863 5.863 0 0 1-4.15 10.005z"/><path class="st0" d="M5.862 219.79a5.861 5.861 0 0 1-4.149-10.004l100.792-100.937a5.863 5.863 0 0 1 8.299 8.285L10.012 218.07a5.847 5.847 0 0 1-4.15 1.72zM405.787 225.403c-1.5 0-3.001-.572-4.146-1.717L300.705 122.749a5.862 5.862 0 0 1 0-8.291 5.86 5.86 0 0 1 8.29 0l100.937 100.937a5.86 5.86 0 0 1 0 8.291 5.841 5.841 0 0 1-4.145 1.717z"/><path class="st0" d="M304.85 225.403a5.862 5.862 0 0 1-4.145-10.008l100.936-100.937a5.86 5.86 0 0 1 8.29 0 5.86 5.86 0 0 1 0 8.291L308.995 223.686a5.841 5.841 0 0 1-4.145 1.717z"/><path class="st0" d="M355.318 275.872c-1.5 0-3.001-.572-4.145-1.717l-50.469-50.469a5.862 5.862 0 1 1 8.29-8.291l50.469 50.469a5.862 5.862 0 0 1-4.145 10.008z"/><path class="st0" d="M355.318 275.872c-1.5 0-3.001-.572-4.145-1.717a5.86 5.86 0 0 1 0-8.291l50.468-50.469a5.862 5.862 0 0 1 8.29 8.291l-50.468 50.469a5.846 5.846 0 0 1-4.145 1.717z"/><path class="st0" d="M506.137 275.872H405.491a5.863 5.863 0 0 1-5.862-5.863V118.603a5.863 5.863 0 0 1 5.862-5.863h100.645a5.862 5.862 0 0 1 5.863 5.863v151.406a5.862 5.862 0 0 1-5.862 5.863zm-94.784-11.726h88.921v-139.68h-88.921v139.68z"/><path class="st0" d="M506.137 225.403a5.844 5.844 0 0 1-4.148-1.72L401.195 122.746a5.864 5.864 0 0 1 8.298-8.285l100.793 100.937a5.864 5.864 0 0 1-4.149 10.005z"/><path class="st0" d="M405.344 225.403a5.864 5.864 0 0 1-4.149-10.005l100.793-100.937a5.864 5.864 0 0 1 8.298 8.285L409.493 223.683a5.848 5.848 0 0 1-4.149 1.72z"/><path class="st0" d="M455.813 275.872c-1.5 0-3.001-.572-4.145-1.717l-50.469-50.469a5.862 5.862 0 1 1 8.29-8.291l50.468 50.469a5.86 5.86 0 0 1 0 8.291 5.842 5.842 0 0 1-4.144 1.717z"/><path class="st0" d="M455.813 275.872a5.864 5.864 0 0 1-4.153-10.002l50.325-50.468a5.864 5.864 0 0 1 8.304 8.279l-50.324 50.469a5.854 5.854 0 0 1-4.152 1.722z"/><g><path class="st2" d="M5.862 438.252h500.274v56.081H5.862zM5.862 382.171h500.274v56.081H5.862zM5.862 326.09h500.274v56.081H5.862z"/><path class="st2" d="M5.862 270.009h500.274v56.081H5.862z"/><path class="st3" d="M463.779 269.872h42.357v224.462h-42.357z"/><path class="st2" d="M5.862 213.927h250.14v56.082H5.862z"/><path class="st3" d="M213.642 213.927h42.36v56.355h-42.36z"/><path class="st0" d="M506.137 500.196H5.862A5.863 5.863 0 0 1 0 494.334v-56.082a5.863 5.863 0 0 1 5.862-5.863h500.274a5.863 5.863 0 0 1 5.863 5.863v56.082a5.861 5.861 0 0 1-5.862 5.862zM11.725 488.471h488.55v-44.357H11.725v44.357z"/><path class="st0" d="M506.137 444.115H5.862A5.863 5.863 0 0 1 0 438.253v-56.081a5.862 5.862 0 0 1 5.862-5.862h500.274a5.863 5.863 0 0 1 5.863 5.862v56.081a5.861 5.861 0 0 1-5.862 5.862zM11.725 432.39h488.55v-44.356H11.725v44.356z"/><path class="st0" d="M506.137 388.034H5.862A5.863 5.863 0 0 1 0 382.171V326.09a5.862 5.862 0 0 1 5.862-5.862h500.274a5.863 5.863 0 0 1 5.863 5.862v56.081a5.862 5.862 0 0 1-5.862 5.863zM11.725 376.309h488.55v-44.356H11.725v44.356z"/><path class="st0" d="M506.137 331.953H5.862A5.863 5.863 0 0 1 0 326.09v-56.081a5.863 5.863 0 0 1 5.862-5.863h500.274a5.863 5.863 0 0 1 5.863 5.863v56.081a5.862 5.862 0 0 1-5.862 5.863zM11.725 320.227h488.55v-44.356H11.725v44.356z"/><path class="st0" d="M256.002 275.872H5.862A5.863 5.863 0 0 1 0 270.009v-56.082a5.863 5.863 0 0 1 5.862-5.863h250.14a5.863 5.863 0 0 1 5.862 5.863v56.082a5.863 5.863 0 0 1-5.862 5.863zM11.725 264.146h238.414V219.79H11.725v44.356zM44.203 500.196a5.863 5.863 0 0 1-5.863-5.862v-56.082a5.863 5.863 0 0 1 11.725 0v56.082a5.863 5.863 0 0 1-5.862 5.862zM128.922 500.196a5.863 5.863 0 0 1-5.862-5.862v-56.082a5.863 5.863 0 1 1 11.725 0v56.082a5.863 5.863 0 0 1-5.863 5.862zM213.642 500.196a5.863 5.863 0 0 1-5.862-5.862v-56.082a5.863 5.863 0 1 1 11.724 0v56.082a5.862 5.862 0 0 1-5.862 5.862zM298.361 500.196a5.863 5.863 0 0 1-5.862-5.862v-56.082a5.863 5.863 0 1 1 11.725 0v56.082a5.862 5.862 0 0 1-5.863 5.862zM383.081 500.196a5.862 5.862 0 0 1-5.862-5.862v-56.082a5.862 5.862 0 1 1 11.724 0v56.082a5.863 5.863 0 0 1-5.862 5.862zM467.801 500.196a5.863 5.863 0 0 1-5.863-5.862v-56.082a5.863 5.863 0 0 1 11.724 0v56.082a5.862 5.862 0 0 1-5.861 5.862z"/><g><path class="st0" d="M86.563 444.115a5.863 5.863 0 0 1-5.862-5.862v-56.081a5.862 5.862 0 1 1 11.724 0v56.081a5.862 5.862 0 0 1-5.862 5.862zM171.282 444.115a5.863 5.863 0 0 1-5.862-5.862v-56.081a5.862 5.862 0 1 1 11.724 0v56.081a5.861 5.861 0 0 1-5.862 5.862zM256.002 444.115a5.863 5.863 0 0 1-5.863-5.862v-56.081a5.862 5.862 0 0 1 11.725 0v56.081a5.863 5.863 0 0 1-5.862 5.862zM340.721 444.115a5.863 5.863 0 0 1-5.862-5.862v-56.081a5.862 5.862 0 1 1 11.725 0v56.081a5.863 5.863 0 0 1-5.863 5.862zM425.44 444.115a5.863 5.863 0 0 1-5.862-5.862v-56.081a5.862 5.862 0 1 1 11.724 0v56.081a5.861 5.861 0 0 1-5.862 5.862z"/></g><g><path class="st0" d="M44.203 388.034a5.863 5.863 0 0 1-5.863-5.863V326.09a5.862 5.862 0 0 1 11.725 0v56.081a5.863 5.863 0 0 1-5.862 5.863zM128.922 388.034a5.863 5.863 0 0 1-5.862-5.863V326.09a5.862 5.862 0 1 1 11.725 0v56.081a5.863 5.863 0 0 1-5.863 5.863zM213.642 388.034a5.863 5.863 0 0 1-5.862-5.863V326.09a5.862 5.862 0 1 1 11.724 0v56.081a5.862 5.862 0 0 1-5.862 5.863zM298.361 388.034a5.863 5.863 0 0 1-5.862-5.863V326.09a5.862 5.862 0 1 1 11.725 0v56.081a5.862 5.862 0 0 1-5.863 5.863zM383.081 388.034a5.862 5.862 0 0 1-5.862-5.863V326.09a5.861 5.861 0 1 1 11.724 0v56.081a5.863 5.863 0 0 1-5.862 5.863zM467.801 388.034a5.863 5.863 0 0 1-5.863-5.863V326.09a5.862 5.862 0 0 1 11.724 0v56.081a5.862 5.862 0 0 1-5.861 5.863z"/></g><g><path class="st0" d="M44.203 276.145a5.863 5.863 0 0 1-5.863-5.862v-56.081a5.863 5.863 0 0 1 11.725 0v56.081a5.862 5.862 0 0 1-5.862 5.862zM128.922 276.145a5.863 5.863 0 0 1-5.862-5.862v-56.081a5.863 5.863 0 1 1 11.725 0v56.081a5.862 5.862 0 0 1-5.863 5.862zM213.642 276.145a5.863 5.863 0 0 1-5.862-5.862v-56.081a5.863 5.863 0 1 1 11.724 0v56.081a5.861 5.861 0 0 1-5.862 5.862z"/></g><g><path class="st0" d="M86.563 331.953a5.863 5.863 0 0 1-5.862-5.863v-56.081a5.863 5.863 0 1 1 11.724 0v56.081a5.862 5.862 0 0 1-5.862 5.863zM171.282 331.953a5.863 5.863 0 0 1-5.862-5.863v-56.081a5.863 5.863 0 1 1 11.724 0v56.081a5.862 5.862 0 0 1-5.862 5.863zM256.002 331.953a5.863 5.863 0 0 1-5.863-5.863v-56.081a5.863 5.863 0 0 1 11.725 0v56.081a5.863 5.863 0 0 1-5.862 5.863zM340.721 331.953a5.863 5.863 0 0 1-5.862-5.863v-56.081a5.863 5.863 0 1 1 11.725 0v56.081a5.863 5.863 0 0 1-5.863 5.863zM425.44 331.953a5.863 5.863 0 0 1-5.862-5.863v-56.081a5.863 5.863 0 1 1 11.724 0v56.081a5.862 5.862 0 0 1-5.862 5.863z"/></g></g></svg>