<svg data-name="Layer 1" xmlns="http://www.w3.org/2000/svg" viewBox="0 0 128 128"><path d="M28.244 31.931h32a1.75 1.75 0 0 0 1.75-1.75V21.59a1.75 1.75 0 0 0-1.75-1.75h-32a1.75 1.75 0 0 0-1.75 1.75v8.59a1.75 1.75 0 0 0 1.75 1.751zm1.75-8.59h28.5v5.09h-28.5zM28 52.729h10.455a1.75 1.75 0 0 0 1.75-1.75V40.524a1.75 1.75 0 0 0-1.75-1.75H28a1.75 1.75 0 0 0-1.75 1.75v10.455a1.75 1.75 0 0 0 1.75 1.75zm1.75-10.454h6.954v6.954h-6.953zM60.244 38.774H49.79a1.75 1.75 0 0 0-1.75 1.75v10.455a1.75 1.75 0 0 0 1.75 1.75h10.454a1.75 1.75 0 0 0 1.75-1.75V40.524a1.75 1.75 0 0 0-1.75-1.75zm-1.75 10.454H51.54v-6.954h6.954zM38.455 71.9a1.75 1.75 0 0 0 1.75-1.75V59.691a1.75 1.75 0 0 0-1.75-1.75H28a1.75 1.75 0 0 0-1.75 1.75v10.454A1.75 1.75 0 0 0 28 71.9zm-8.7-10.454h6.954V68.4h-6.958zM60.244 57.941H49.79a1.75 1.75 0 0 0-1.75 1.75v10.454a1.75 1.75 0 0 0 1.75 1.75h10.454a1.75 1.75 0 0 0 1.75-1.75V59.691a1.75 1.75 0 0 0-1.75-1.75zM58.494 68.4H51.54v-6.959h6.954z"/><path d="M115 113.25h-14.705v-5.125h8.128a1.75 1.75 0 0 0 1.75-1.75V97.75a1.75 1.75 0 0 0-1.75-1.75h-8.128v-6.875a1.75 1.75 0 0 0-1.75-1.75h-8.128V80.5a1.75 1.75 0 0 0-1.75-1.75H70.661V13a1.75 1.75 0 0 0-1.75-1.75H19.577a1.75 1.75 0 0 0-1.75 1.75v100.25H13a1.75 1.75 0 0 0 0 3.5h102a1.75 1.75 0 0 0 0-3.5zm-8.327-8.625H90.417V99.5h16.256zm-36.012 0V99.5h16.256v5.125zM77.039 96h-6.378v-5.125h6.378zm-6.378 12.125h6.378v5.125h-6.378zM96.795 96H80.539v-5.125h16.256zm-9.878-13.75v5.125H70.661V82.25zm-65.59-67.5h45.834v98.5H56.827V83.329a1.75 1.75 0 0 0-1.75-1.75H33.411a1.75 1.75 0 0 0-1.75 1.75v29.921H21.327zm32 98.5H35.161V85.079h18.166zm27.212 0v-5.125h16.256v5.125z"/></svg>